<svg width="201" height="40" viewBox="0 0 201 40" fill="none" xmlns="http://www.w3.org/2000/svg">
<path d="M30.1224 17.8352C28.9867 18.9465 28.4191 20.4922 28.5741 22.0518L28.5474 22.0258C28.7067 23.8611 28.026 25.6714 26.6868 26.9738C25.3476 28.2761 23.4862 28.9381 21.599 28.7832L21.6257 28.8091C19.3407 28.6023 17.1678 29.811 16.1926 31.8312C15.2175 33.8515 15.6496 36.2494 17.273 37.8268C18.8965 39.4041 21.3626 39.8222 23.439 38.872C25.5155 37.9219 26.7564 35.8076 26.5417 33.5856L26.5698 33.6116C26.4105 31.7763 27.0912 29.966 28.4304 28.6636C29.7696 27.3613 31.631 26.6993 33.5182 26.8542L33.4901 26.8283C36.0013 27.0479 38.338 25.5588 39.1334 23.232C39.9288 20.9051 38.9739 18.3519 36.8273 17.0656C34.6807 15.7793 31.9063 16.098 30.1269 17.8352H30.1224Z" fill="#5454D4"/>
<path d="M19.2025 25.4144L19.1744 25.3885C20.779 25.5457 22.3715 24.9939 23.5124 23.8852C24.6532 22.7766 25.2219 21.2283 25.0614 19.6676L25.0895 19.6935C24.9302 17.8582 25.611 16.048 26.9501 14.7456C28.2893 13.4432 30.1508 12.7812 32.0379 12.9361L32.0098 12.9102C34.2949 13.1189 36.4692 11.9115 37.4458 9.8916C38.4224 7.87165 37.9916 5.47303 36.3687 3.8947C34.7457 2.31638 32.2793 1.89737 30.2022 2.84713C28.1252 3.79689 26.8837 5.9114 27.0983 8.13372L27.0716 8.10636C27.2315 9.94179 26.5509 11.7524 25.2116 13.0548C23.8723 14.3573 22.0105 15.0192 20.1232 14.8637L20.1499 14.8911C18.5452 14.7338 16.9527 15.2857 15.8118 16.3943C14.671 17.503 14.1023 19.0513 14.2628 20.612L14.2362 20.5861C14.395 22.4212 13.7141 24.2312 12.375 25.5334C11.0359 26.8357 9.17482 27.4978 7.28778 27.3434L7.31442 27.3693C5.02929 27.1606 2.855 28.368 1.87839 30.388C0.90178 32.4079 1.33263 34.8065 2.95557 36.3849C4.57852 37.9632 7.04495 38.3822 9.122 37.4324C11.199 36.4827 12.4406 34.3682 12.226 32.1458L12.2541 32.1718C12.0948 30.3365 12.7755 28.5262 14.1147 27.2238C15.4539 25.9215 17.3153 25.2595 19.2025 25.4144V25.4144Z" fill="#FF7143"/>
<path d="M9.28171 22.5254C10.4177 21.4143 10.9848 19.8683 10.8286 18.3089L10.8567 18.3348C10.6973 16.499 11.3784 14.6882 12.7183 13.3857C14.0581 12.0832 15.9204 11.4216 17.8081 11.5774L17.78 11.5515C20.0643 11.7596 22.2375 10.5524 23.2135 8.53305C24.1896 6.51374 23.7587 4.11606 22.1364 2.53832C20.5141 0.96058 18.0486 0.541601 15.9722 1.49078C13.8958 2.43996 12.6544 4.55346 12.8684 6.775L12.8418 6.74908C13.0011 8.58438 12.3203 10.3946 10.9812 11.697C9.64198 12.9994 7.78054 13.6614 5.89336 13.5065L5.92001 13.5324C3.40888 13.3134 1.07266 14.8029 0.277732 17.1297C-0.517197 19.4565 0.437973 22.0095 2.58459 23.2954C4.73121 24.5814 7.50542 24.2626 9.28467 22.5254H9.28171Z" fill="#5454D4"/>
<path d="M55.1361 8.16699H59.5325V28.9732H55.1361V8.16699Z" fill="#19191B"/>
<path fill-rule="evenodd" clip-rule="evenodd" d="M66.7954 14.8486C63.8941 16.0272 62.0097 18.7907 62.0223 21.8486C62.0071 23.8536 62.8215 25.7804 64.2823 27.1954C65.7431 28.6103 67.7276 29.3946 69.7893 29.3718C72.9336 29.3718 75.7676 27.5281 76.968 24.7019C78.1683 21.8756 77.4981 18.6244 75.2703 16.4665C73.0425 14.3086 69.6967 13.6699 66.7954 14.8486ZM69.7268 18.6604C71.5767 18.6272 73.1087 20.0498 73.1598 21.8485C73.2098 22.7402 72.874 23.6115 72.2337 24.2517C71.5935 24.8918 70.7072 25.2424 69.7892 25.2185C67.939 25.2186 66.4343 23.7688 66.4171 21.9695C66.4 20.1702 67.8769 18.6936 69.7268 18.6604Z" fill="#19191B"/>
<path fill-rule="evenodd" clip-rule="evenodd" d="M95.0783 28.2549V14.7229L90.7989 14.72V16.174C89.7549 14.9317 88.1672 14.2444 86.5194 14.3213C82.4998 14.4445 79.3069 17.6491 79.3069 21.5602C79.3069 25.4712 82.4998 28.6758 86.5194 28.7991C88.1672 28.876 89.7549 28.1886 90.7989 26.9463V28.2492C90.8724 29.1087 90.5404 29.9542 89.8963 30.5473C89.2523 31.1403 88.366 31.4166 87.4875 31.2982C86.0978 31.4361 84.7661 30.7206 84.1465 29.503L80.3955 31.612C81.863 33.9373 84.5433 35.2706 87.3409 35.067C91.2385 35.067 95.0783 33.0429 95.0783 28.2549ZM88.7112 18.2689C90.0338 18.8489 90.8608 20.1527 90.8003 21.5624C90.8277 22.4726 90.458 23.3517 89.7827 23.9824C89.1073 24.6132 88.1892 24.9368 87.2551 24.8734C85.8043 24.8751 84.4982 24.0188 83.9558 22.7102C83.4133 21.4016 83.7436 19.9038 84.79 18.9265C85.8364 17.9492 87.3887 17.6889 88.7112 18.2689Z" fill="#19191B"/>
<path fill-rule="evenodd" clip-rule="evenodd" d="M102.341 14.8486C99.4399 16.0272 97.5555 18.7907 97.5681 21.8486C97.5528 23.8536 98.3673 25.7804 99.8281 27.1954C101.289 28.6103 103.273 29.3946 105.335 29.3718C108.479 29.3718 111.313 27.5281 112.514 24.7019C113.714 21.8756 113.044 18.6244 110.816 16.4665C108.588 14.3086 105.242 13.6699 102.341 14.8486ZM105.273 18.6604C107.123 18.6272 108.654 20.0498 108.706 21.8485C108.756 22.7402 108.42 23.6115 107.78 24.2517C107.139 24.8918 106.253 25.2424 105.335 25.2185C103.485 25.2186 101.98 23.7688 101.963 21.9695C101.946 20.1702 103.423 18.6936 105.273 18.6604Z" fill="#19191B"/>
<path fill-rule="evenodd" clip-rule="evenodd" d="M116.781 8.53348C115.795 8.93055 115.152 9.86596 115.152 10.9035C115.167 12.3145 116.339 13.4548 117.79 13.4689C118.857 13.4689 119.819 12.8438 120.227 11.8852C120.635 10.9266 120.41 9.82325 119.655 9.08958C118.901 8.3559 117.766 8.13642 116.781 8.53348ZM119.994 14.7226H115.596L115.59 28.9745H119.994V14.7226Z" fill="#19191B"/>
<path fill-rule="evenodd" clip-rule="evenodd" d="M137.084 27.0269C138.398 25.6148 139.08 23.7511 138.977 21.8488C139.081 19.9461 138.399 18.0818 137.085 16.6693C135.77 15.2568 133.93 14.4127 131.973 14.3241C130.323 14.2366 128.72 14.8745 127.607 16.0617V14.7229H123.211V34.674H127.607V27.633C128.72 28.821 130.323 29.4596 131.973 29.372C133.929 29.283 135.769 28.439 137.084 27.0269ZM131.036 18.5425C132.951 18.5113 134.533 19.9871 134.581 21.8487C134.647 22.7738 134.304 23.6825 133.639 24.3465C132.973 25.0104 132.047 25.3665 131.095 25.3253C129.18 25.3255 127.623 23.8243 127.607 21.9622C127.591 20.1001 129.122 18.5736 131.036 18.5425Z" fill="#19191B"/>
<path d="M152.544 24.6978C152.544 27.9757 149.614 29.3721 146.45 29.3721C143.833 29.6025 141.337 28.2588 140.148 25.9804L143.957 23.8714C144.274 24.9321 145.311 25.6329 146.444 25.5529C147.498 25.5529 148.026 25.239 148.026 24.6704C148.026 23.1013 140.816 23.929 140.816 18.9985C140.816 15.8904 143.513 14.3242 146.561 14.3242C148.894 14.2524 151.083 15.4205 152.275 17.3732L148.524 19.3397C148.187 18.5765 147.414 18.0828 146.561 18.0858C145.798 18.0858 145.329 18.3737 145.329 18.8833C145.335 20.5086 152.544 19.4246 152.544 24.6978Z" fill="#19191B"/>
<path d="M168.603 14.7229V28.9747H164.207V27.6345C163.178 28.8341 161.62 29.4809 160.018 29.3735C157.057 29.3735 154.541 27.3221 154.541 23.4712V14.7229H158.937V22.845C158.863 23.532 159.103 24.2161 159.594 24.7152C160.085 25.2144 160.777 25.4781 161.486 25.4362C163.098 25.4362 164.211 24.525 164.211 22.5009V14.7272L168.603 14.7229Z" fill="#19191B"/>
<path d="M193.812 20.2236V28.9734H189.416V20.5936C189.416 19.1684 188.713 18.2572 187.307 18.2572C185.841 18.2572 185.02 19.2548 185.02 20.9362V28.9734H180.625V20.5936C180.625 19.1684 179.922 18.2572 178.514 18.2572C177.048 18.2572 176.228 19.2548 176.228 20.9362V28.9734H171.832V14.7216H176.228V16.0316C177.154 14.8507 178.633 14.2072 180.155 14.3228C181.686 14.25 183.143 14.9638 183.994 16.2029C184.984 14.9075 186.589 14.1975 188.244 14.3228C191.608 14.3242 193.812 16.6607 193.812 20.2236Z" fill="#19191B"/>
<path d="M197.531 14.6352C199.333 14.6352 200.793 13.2147 200.793 11.4624C200.793 9.71007 199.333 8.28955 197.531 8.28955C195.729 8.28955 194.268 9.71007 194.268 11.4624C194.268 13.2147 195.729 14.6352 197.531 14.6352Z" fill="#19191B"/>
</svg>
