<svg width="202" height="40" viewBox="0 0 202 40" fill="none" xmlns="http://www.w3.org/2000/svg">
<path d="M30.1792 17.7876C29.0413 18.8989 28.4726 20.4445 28.6279 22.0041L28.6012 21.9782C28.7608 23.8135 28.0788 25.6238 26.7371 26.9261C25.3954 28.2285 23.5305 28.8905 21.6397 28.7356L21.6664 28.7615C19.3772 28.5547 17.2001 29.7634 16.2232 31.7836C15.2462 33.8038 15.6791 36.2018 17.3056 37.7791C18.9321 39.3565 21.4028 39.7745 23.4832 38.8244C25.5636 37.8743 26.8068 35.7599 26.5917 33.538L26.6199 33.5639C26.4603 31.7286 27.1423 29.9184 28.484 28.616C29.8257 27.3136 31.6906 26.6516 33.5814 26.8065L33.5532 26.7806C36.0691 27.0003 38.4103 25.5111 39.2072 23.1843C40.0041 20.8575 39.0474 18.3042 36.8967 17.018C34.7461 15.7317 31.9664 16.0504 30.1837 17.7876H30.1792Z" fill="#5454D4"/>
<path d="M19.2387 25.367L19.2105 25.3411C20.8182 25.4983 22.4137 24.9465 23.5567 23.8378C24.6997 22.7291 25.2694 21.1809 25.1086 19.6202L25.1368 19.6461C24.9772 17.8108 25.6592 16.0005 27.0009 14.6982C28.3426 13.3958 30.2076 12.7338 32.0983 12.8887L32.0701 12.8628C34.3596 13.0715 36.538 11.8641 37.5164 9.84418C38.4949 7.82423 38.0632 5.42561 36.4372 3.84728C34.8112 2.26895 32.3401 1.84995 30.2592 2.79971C28.1782 3.74947 26.9343 5.86398 27.1493 8.0863L27.1226 8.05894C27.2828 9.89437 26.6009 11.7049 25.2591 13.0074C23.9173 14.3099 22.052 14.9718 20.1612 14.8163L20.1878 14.8437C18.5801 14.6864 16.9847 15.2383 15.8416 16.3469C14.6986 17.4556 14.1289 19.0039 14.2897 20.5645L14.263 20.5386C14.4221 22.3738 13.7399 24.1837 12.3983 25.486C11.0567 26.7882 9.19212 27.4504 7.30151 27.296L7.32821 27.3219C5.03877 27.1132 2.86038 28.3206 1.88193 30.3405C0.903478 32.3605 1.33514 34.7591 2.96114 36.3374C4.58715 37.9158 7.05823 38.3348 9.13919 37.385C11.2202 36.4353 12.464 34.3207 12.249 32.0984L12.2772 32.1243C12.1176 30.289 12.7996 28.4788 14.1413 27.1764C15.483 25.8741 17.348 25.212 19.2387 25.367V25.367Z" fill="#FF7143"/>
<path d="M9.2992 22.4777C10.4373 21.3666 11.0055 19.8207 10.849 18.2612L10.8772 18.2871C10.7175 16.4513 11.3998 14.6405 12.7422 13.338C14.0846 12.0355 15.9504 11.3739 17.8416 11.5297L17.8135 11.5038C20.1021 11.7119 22.2795 10.5047 23.2573 8.48536C24.2352 6.46606 23.8035 4.06838 22.1781 2.49064C20.5527 0.912896 18.0826 0.493917 16.0023 1.4431C13.922 2.39228 12.6783 4.50578 12.8927 6.72731L12.866 6.7014C13.0256 8.5367 12.3436 10.347 11.0019 11.6493C9.66015 12.9517 7.79521 13.6137 5.90447 13.4588L5.93117 13.4847C3.41531 13.2657 1.07468 14.7552 0.278255 17.082C-0.518171 19.4088 0.438799 21.9618 2.58946 23.2478C4.74013 24.5337 7.51957 24.2149 9.30217 22.4777H9.2992Z" fill="#5454D4"/>
<path d="M55.2401 8.11937H59.6447V28.9256H55.2401V8.11937Z" fill="#19191B"/>
<path fill-rule="evenodd" clip-rule="evenodd" d="M66.9213 14.8011C64.0146 15.9798 62.1266 18.7433 62.1392 21.8011C62.124 23.8062 62.9399 25.7329 64.4035 27.1479C65.8671 28.5629 67.8553 29.3472 69.9209 29.3243C73.0711 29.3243 75.9105 27.4807 77.1131 24.6544C78.3157 21.8282 77.6442 18.577 75.4122 16.4191C73.1802 14.2612 69.8281 13.6224 66.9213 14.8011ZM69.8583 18.613C71.7117 18.5798 73.2465 20.0024 73.2978 21.8011C73.3478 22.6928 73.0114 23.5642 72.37 24.2043C71.7285 24.8444 70.8405 25.195 69.9208 25.1712C68.0671 25.1713 66.5595 23.7215 66.5424 21.9222C66.5252 20.1229 68.0049 18.6462 69.8583 18.613Z" fill="#19191B"/>
<path fill-rule="evenodd" clip-rule="evenodd" d="M95.2575 28.2072V14.6752L90.97 14.6723V16.1263C89.9241 14.8841 88.3334 14.1967 86.6825 14.2736C82.6553 14.3969 79.4564 17.6014 79.4564 21.5125C79.4564 25.4235 82.6553 28.6281 86.6825 28.7514C88.3334 28.8283 89.9241 28.1409 90.97 26.8987V28.2015C91.0437 29.061 90.711 29.9066 90.0658 30.4996C89.4205 31.0926 88.5326 31.3689 87.6524 31.2505C86.2601 31.3884 84.9259 30.6729 84.3051 29.4553L80.547 31.5643C82.0173 33.8896 84.7026 35.2229 87.5056 35.0193C91.4105 35.0193 95.2575 32.9953 95.2575 28.2072ZM88.8785 18.2211C90.2035 18.8011 91.0321 20.1049 90.9715 21.5146C90.9989 22.4249 90.6286 23.3039 89.9519 23.9347C89.2753 24.5654 88.3554 24.8891 87.4196 24.8257C85.966 24.8274 84.6575 23.971 84.114 22.6624C83.5706 21.3538 83.9015 19.856 84.9498 18.8787C85.9982 17.9014 87.5534 17.6411 88.8785 18.2211Z" fill="#19191B"/>
<path fill-rule="evenodd" clip-rule="evenodd" d="M102.534 14.8011C99.6274 15.9798 97.7394 18.7433 97.752 21.8011C97.7368 23.8062 98.5527 25.7329 100.016 27.1479C101.48 28.5629 103.468 29.3472 105.534 29.3243C108.684 29.3243 111.523 27.4807 112.726 24.6544C113.928 21.8282 113.257 18.577 111.025 16.4191C108.793 14.2612 105.441 13.6224 102.534 14.8011ZM105.471 18.613C107.324 18.5798 108.859 20.0024 108.911 21.8011C108.961 22.6928 108.624 23.5642 107.983 24.2043C107.341 24.8444 106.453 25.195 105.534 25.1712C103.68 25.1713 102.172 23.7215 102.155 21.9222C102.138 20.1229 103.618 18.6462 105.471 18.613Z" fill="#19191B"/>
<path fill-rule="evenodd" clip-rule="evenodd" d="M117.001 8.48596C116.013 8.88302 115.369 9.81843 115.369 10.856C115.384 12.2669 116.559 13.4073 118.012 13.4213C119.081 13.4213 120.045 12.7963 120.454 11.8377C120.863 10.8791 120.637 9.77573 119.881 9.04205C119.125 8.30837 117.988 8.0889 117.001 8.48596ZM120.22 14.6752H115.814L115.808 28.927H120.22V14.6752Z" fill="#19191B"/>
<path fill-rule="evenodd" clip-rule="evenodd" d="M137.342 26.9793C138.659 25.5672 139.342 23.7035 139.239 21.8011C139.343 19.8984 138.66 18.0342 137.343 16.6217C136.026 15.2092 134.182 14.3651 132.221 14.2765C130.569 14.189 128.963 14.8269 127.848 16.014V14.6752H123.443V34.6263H127.848V27.5854C128.962 28.7734 130.568 29.4119 132.221 29.3244C134.182 29.2354 136.025 28.3914 137.342 26.9793ZM131.283 18.4949C133.201 18.4638 134.786 19.9396 134.835 21.8012C134.901 22.7263 134.558 23.635 133.891 24.2989C133.224 24.9629 132.296 25.319 131.342 25.2777C129.423 25.2779 127.864 23.7767 127.848 21.9147C127.831 20.0526 129.365 18.5261 131.283 18.4949Z" fill="#19191B"/>
<path d="M152.831 24.65C152.831 27.9279 149.896 29.3243 146.726 29.3243C144.104 29.5548 141.603 28.2111 140.412 25.9327L144.228 23.8237C144.546 24.8844 145.585 25.5851 146.72 25.5051C147.776 25.5051 148.305 25.1913 148.305 24.6227C148.305 23.0535 141.081 23.8813 141.081 18.9507C141.081 15.8427 143.783 14.2764 146.837 14.2764C149.175 14.2046 151.368 15.3727 152.562 17.3255L148.803 19.2919C148.467 18.5288 147.692 18.0351 146.837 18.038C146.073 18.038 145.603 18.326 145.603 18.8356C145.609 20.4609 152.831 19.3768 152.831 24.65Z" fill="#19191B"/>
<path d="M168.921 14.6752V28.927H164.517V27.5868C163.486 28.7864 161.925 29.4332 160.319 29.3258C157.353 29.3258 154.832 27.2744 154.832 23.4235V14.6752H159.237V22.7973C159.162 23.4843 159.403 24.1684 159.895 24.6676C160.387 25.1667 161.08 25.4305 161.791 25.3886C163.406 25.3886 164.521 24.4773 164.521 22.4533V14.6795L168.921 14.6752Z" fill="#19191B"/>
<path d="M194.178 20.1758V28.9256H189.773V20.5458C189.773 19.1206 189.069 18.2094 187.66 18.2094C186.192 18.2094 185.368 19.207 185.368 20.8884V28.9256H180.965V20.5458C180.965 19.1206 180.261 18.2094 178.85 18.2094C177.382 18.2094 176.561 19.207 176.561 20.8884V28.9256H172.156V14.6738H176.561V15.9838C177.488 14.8029 178.97 14.1595 180.495 14.275C182.028 14.2022 183.488 14.916 184.341 16.1551C185.333 14.8597 186.941 14.1497 188.599 14.275C191.97 14.2765 194.178 16.6129 194.178 20.1758Z" fill="#19191B"/>
<path d="M197.903 14.5874C199.708 14.5874 201.172 13.1669 201.172 11.4146C201.172 9.66226 199.708 8.24174 197.903 8.24174C196.098 8.24174 194.635 9.66226 194.635 11.4146C194.635 13.1669 196.098 14.5874 197.903 14.5874Z" fill="#19191B"/>
</svg>
